<svg width="2560" height="715" viewBox="0 0 2560 715" fill="none" xmlns="http://www.w3.org/2000/svg">
<path d="M181.37 446.529L181.378 446.606L181.39 446.683C182.486 453.612 185.633 459.249 190.873 463.381C196.134 467.864 202.798 470 210.61 470C218.936 470 226.009 468.268 231.595 464.548C237.229 460.796 242.143 453.934 246.524 444.51L246.538 444.48L246.551 444.45L366.92 169.824C366.923 169.817 366.926 169.811 366.928 169.804C370.391 162.188 371.73 154.986 370.618 148.305C369.533 141.451 366.598 135.837 361.716 131.689C356.748 127.133 350.193 125 342.391 125C333.741 125 326.467 126.895 320.855 130.984C315.182 134.788 310.619 141.707 306.91 151.13L248.972 292.109L192.1 151.649C188.419 141.962 184.048 134.871 178.721 131.042C173.439 126.919 166.635 125 158.592 125C149.257 125 141.46 127.071 135.503 131.528C129.895 135.642 126.517 141.301 125.408 148.317C124.314 155.242 125.436 162.566 128.568 170.213L128.579 170.24L128.591 170.267L212.768 364.778L185.094 425.169L185.079 425.203L185.064 425.236C181.929 432.544 180.646 439.659 181.37 446.529Z" stroke="#020617" stroke-width="6"/>
<path d="M434.63 268.471L434.622 268.394L434.61 268.317C433.514 261.388 430.367 255.751 425.127 251.619C419.866 247.136 413.202 245 405.39 245C397.064 245 389.991 246.732 384.405 250.452C378.771 254.204 373.857 261.066 369.476 270.49L369.462 270.52L369.449 270.55L249.08 545.176C249.077 545.183 249.074 545.189 249.072 545.196C245.609 552.812 244.27 560.014 245.382 566.695C246.467 573.549 249.402 579.163 254.284 583.311C259.252 587.867 265.807 590 273.609 590C282.259 590 289.533 588.105 295.145 584.016C300.818 580.212 305.381 573.293 309.09 563.87L367.028 422.891L423.9 563.351C427.581 573.038 431.952 580.129 437.279 583.958C442.561 588.081 449.365 590 457.408 590C466.743 590 474.54 587.929 480.497 583.472C486.105 579.358 489.483 573.699 490.592 566.683C491.686 559.758 490.564 552.434 487.432 544.787L487.421 544.76L487.409 544.733L403.232 350.222L430.906 289.831L430.921 289.797L430.936 289.764C434.071 282.456 435.354 275.341 434.63 268.471Z" stroke="#020617" stroke-width="6"/>
<path d="M1070.29 392.124C1067.64 392.124 1065.6 391.441 1064.15 390.076C1062.78 388.625 1062.1 386.577 1062.1 383.932V335.548C1062.1 332.903 1062.78 330.897 1064.15 329.532C1065.51 328.167 1067.43 327.484 1069.9 327.484C1072.38 327.484 1074.3 328.167 1075.67 329.532C1077.03 330.897 1077.71 332.903 1077.71 335.548V343.612H1076.43C1077.63 338.492 1079.97 334.609 1083.47 331.964C1086.97 329.319 1091.62 327.74 1097.43 327.228C1099.22 327.057 1100.63 327.527 1101.65 328.636C1102.76 329.66 1103.4 331.281 1103.57 333.5C1103.74 335.633 1103.23 337.383 1102.03 338.748C1100.92 340.028 1099.22 340.796 1096.91 341.052L1094.1 341.308C1088.89 341.82 1084.97 343.441 1082.32 346.172C1079.68 348.817 1078.35 352.572 1078.35 357.436V383.932C1078.35 386.577 1077.67 388.625 1076.31 390.076C1074.94 391.441 1072.93 392.124 1070.29 392.124Z" fill="#020617"/>
<path d="M1003.01 392.38C997.55 392.38 992.728 391.057 988.547 388.412C984.451 385.767 981.251 382.012 978.947 377.148C976.643 372.199 975.491 366.396 975.491 359.74C975.491 352.999 976.643 347.239 978.947 342.46C981.251 337.596 984.451 333.841 988.547 331.196C992.728 328.551 997.55 327.228 1003.01 327.228C1008.22 327.228 1012.74 328.508 1016.58 331.068C1020.5 333.628 1023.15 336.999 1024.51 341.18L1023.23 344.38V335.548C1023.23 332.903 1023.92 330.897 1025.28 329.532C1026.73 328.167 1028.7 327.484 1031.17 327.484C1033.73 327.484 1035.69 328.167 1037.06 329.532C1038.42 330.897 1039.11 332.903 1039.11 335.548V383.932C1039.11 386.577 1038.42 388.625 1037.06 390.076C1035.69 391.441 1033.73 392.124 1031.17 392.124C1028.61 392.124 1026.65 391.441 1025.28 390.076C1023.92 388.625 1023.23 386.577 1023.23 383.932V375.228L1024.64 377.788C1023.36 382.225 1020.76 385.767 1016.83 388.412C1012.91 391.057 1008.3 392.38 1003.01 392.38ZM1007.49 380.22C1010.65 380.22 1013.42 379.452 1015.81 377.916C1018.2 376.38 1020.04 374.119 1021.32 371.132C1022.68 368.06 1023.36 364.263 1023.36 359.74C1023.36 352.913 1021.91 347.836 1019.01 344.508C1016.11 341.095 1012.27 339.388 1007.49 339.388C1004.33 339.388 1001.56 340.156 999.171 341.692C996.782 343.143 994.904 345.404 993.539 348.476C992.259 351.463 991.619 355.217 991.619 359.74C991.619 366.481 993.07 371.601 995.971 375.1C998.872 378.513 1002.71 380.22 1007.49 380.22Z" fill="#020617"/>
<path d="M931.893 392.38C926.602 392.38 921.952 391.057 917.941 388.412C914.016 385.767 911.413 382.225 910.133 377.788L911.541 374.588V383.932C911.541 386.577 910.858 388.625 909.493 390.076C908.128 391.441 906.208 392.124 903.733 392.124C901.173 392.124 899.21 391.441 897.845 390.076C896.48 388.625 895.797 386.577 895.797 383.932V307.9C895.797 305.255 896.48 303.249 897.845 301.884C899.21 300.519 901.173 299.836 903.733 299.836C906.293 299.836 908.256 300.519 909.621 301.884C911.072 303.249 911.797 305.255 911.797 307.9V341.18H910.261C911.626 336.999 914.272 333.628 918.197 331.068C922.122 328.508 926.688 327.228 931.893 327.228C937.44 327.228 942.261 328.551 946.357 331.196C950.453 333.841 953.653 337.596 955.957 342.46C958.261 347.239 959.413 352.999 959.413 359.74C959.413 366.396 958.261 372.199 955.957 377.148C953.653 382.012 950.41 385.767 946.229 388.412C942.133 391.057 937.354 392.38 931.893 392.38ZM927.413 380.22C930.57 380.22 933.344 379.452 935.733 377.916C938.122 376.38 939.957 374.119 941.237 371.132C942.602 368.06 943.285 364.263 943.285 359.74C943.285 352.913 941.834 347.836 938.933 344.508C936.032 341.095 932.192 339.388 927.413 339.388C924.256 339.388 921.482 340.156 919.093 341.692C916.704 343.143 914.826 345.404 913.461 348.476C912.181 351.463 911.541 355.217 911.541 359.74C911.541 366.481 912.992 371.601 915.893 375.1C918.794 378.513 922.634 380.22 927.413 380.22Z" fill="#020617"/>
<path d="M785.339 392.124C782.779 392.124 780.816 391.441 779.451 390.076C778.086 388.625 777.403 386.577 777.403 383.932V335.548C777.403 332.903 778.086 330.897 779.451 329.532C780.816 328.167 782.736 327.484 785.211 327.484C787.686 327.484 789.606 328.167 790.971 329.532C792.336 330.897 793.019 332.903 793.019 335.548V344.892L791.611 341.052C793.318 336.785 795.963 333.415 799.547 330.94C803.131 328.465 807.398 327.228 812.347 327.228C817.382 327.228 821.52 328.423 824.763 330.812C828.006 333.201 830.267 336.871 831.547 341.82H829.755C831.462 337.297 834.278 333.756 838.203 331.196C842.128 328.551 846.651 327.228 851.771 327.228C856.55 327.228 860.475 328.167 863.547 330.044C866.704 331.921 869.051 334.78 870.587 338.62C872.123 342.375 872.891 347.153 872.891 352.956V383.932C872.891 386.577 872.166 388.625 870.715 390.076C869.35 391.441 867.387 392.124 864.827 392.124C862.267 392.124 860.304 391.441 858.939 390.076C857.574 388.625 856.891 386.577 856.891 383.932V353.596C856.891 348.817 856.08 345.319 854.459 343.1C852.923 340.881 850.278 339.772 846.523 339.772C842.342 339.772 839.056 341.265 836.667 344.252C834.278 347.153 833.083 351.207 833.083 356.412V383.932C833.083 386.577 832.4 388.625 831.035 390.076C829.67 391.441 827.707 392.124 825.147 392.124C822.587 392.124 820.582 391.441 819.131 390.076C817.766 388.625 817.083 386.577 817.083 383.932V353.596C817.083 348.817 816.272 345.319 814.651 343.1C813.115 340.881 810.512 339.772 806.843 339.772C802.662 339.772 799.376 341.265 796.987 344.252C794.598 347.153 793.403 351.207 793.403 356.412V383.932C793.403 389.393 790.715 392.124 785.339 392.124Z" fill="#020617"/>
<path d="M718.061 392.38C712.6 392.38 707.778 391.057 703.597 388.412C699.501 385.767 696.301 382.012 693.997 377.148C691.693 372.199 690.541 366.396 690.541 359.74C690.541 352.999 691.693 347.239 693.997 342.46C696.301 337.596 699.501 333.841 703.597 331.196C707.778 328.551 712.6 327.228 718.061 327.228C723.266 327.228 727.789 328.508 731.629 331.068C735.554 333.628 738.2 336.999 739.565 341.18L738.285 344.38V335.548C738.285 332.903 738.968 330.897 740.333 329.532C741.784 328.167 743.746 327.484 746.221 327.484C748.781 327.484 750.744 328.167 752.109 329.532C753.474 330.897 754.157 332.903 754.157 335.548V383.932C754.157 386.577 753.474 388.625 752.109 390.076C750.744 391.441 748.781 392.124 746.221 392.124C743.661 392.124 741.698 391.441 740.333 390.076C738.968 388.625 738.285 386.577 738.285 383.932V375.228L739.693 377.788C738.413 382.225 735.81 385.767 731.885 388.412C727.96 391.057 723.352 392.38 718.061 392.38ZM722.541 380.22C725.698 380.22 728.472 379.452 730.861 377.916C733.25 376.38 735.085 374.119 736.365 371.132C737.73 368.06 738.413 364.263 738.413 359.74C738.413 352.913 736.962 347.836 734.061 344.508C731.16 341.095 727.32 339.388 722.541 339.388C719.384 339.388 716.61 340.156 714.221 341.692C711.832 343.143 709.954 345.404 708.589 348.476C707.309 351.463 706.669 355.217 706.669 359.74C706.669 366.481 708.12 371.601 711.021 375.1C713.922 378.513 717.762 380.22 722.541 380.22Z" fill="#020617"/>
<path d="M637.344 415.164C635.467 415.164 633.931 414.652 632.736 413.628C631.541 412.689 630.816 411.409 630.56 409.788C630.389 408.167 630.688 406.46 631.456 404.668L640.16 385.34V391.996L616.864 338.108C616.096 336.231 615.84 334.481 616.096 332.86C616.352 331.239 617.12 329.959 618.4 329.02C619.765 327.996 621.6 327.484 623.904 327.484C625.867 327.484 627.445 327.953 628.64 328.892C629.835 329.745 630.901 331.409 631.84 333.884L649.12 377.02H645.28L662.944 333.756C663.883 331.367 664.992 329.745 666.272 328.892C667.552 327.953 669.259 327.484 671.392 327.484C673.269 327.484 674.763 327.996 675.872 329.02C676.981 329.959 677.664 331.239 677.92 332.86C678.176 334.396 677.877 336.103 677.024 337.98L645.92 409.02C644.811 411.409 643.616 413.031 642.336 413.884C641.056 414.737 639.392 415.164 637.344 415.164Z" fill="#020617"/>
<path d="M1941.81 401.5V310.5H1974.5C1985.25 310.5 1993.65 313.146 1999.69 318.438C2005.77 323.688 2008.81 330.729 2008.81 339.562C2008.81 348.396 2005.77 355.521 1999.69 360.938C1993.65 366.312 1985.25 369 1974.5 369H1958.5V401.5H1941.81ZM1958.5 354.375H1974.5C1980.88 354.375 1985.42 352.938 1988.12 350.062C1990.83 347.146 1992.19 343.625 1992.19 339.5C1992.19 335.458 1990.83 332.062 1988.12 329.312C1985.42 326.521 1980.88 325.125 1974.5 325.125H1958.5V354.375ZM1994.38 401.5L1971.75 359.5L1989.75 359.312L2013.69 401.5H1994.38ZM2024.61 401.5L2060.55 309.938H2077.18L2113.86 401.5H2094.93L2071.36 337.312C2070.74 335.771 2070.22 334.292 2069.8 332.875C2069.38 331.458 2069.01 330 2068.68 328.5H2067.99C2067.7 330 2067.32 331.458 2066.86 332.875C2066.45 334.292 2065.95 335.771 2065.36 337.312L2041.05 401.5H2024.61ZM2042.05 381.5L2046.8 366.812L2090.74 366.938L2095.55 381.625L2042.05 381.5ZM2156.91 401.5V369.625L2123.16 310.5H2142.6L2161.79 346.062C2162.45 347.271 2163.08 348.625 2163.66 350.125C2164.25 351.583 2164.77 352.979 2165.23 354.312H2165.85C2166.31 352.979 2166.81 351.583 2167.35 350.125C2167.89 348.667 2168.52 347.312 2169.23 346.062L2189.16 310.5H2206.04L2173.6 367.75V401.5H2156.91ZM2227.46 401.5V310.5H2244.15V386.875H2287.02V401.5H2227.46ZM2310.39 401.5V310.5H2327.08V401.5H2310.39ZM2358.56 401.5V310.5H2391.56C2401.56 310.5 2409.42 312.438 2415.12 316.312C2420.83 320.188 2423.69 326.292 2423.69 334.625C2423.69 339.625 2422.54 343.729 2420.25 346.938C2417.96 350.146 2415.06 352.333 2411.56 353.5V353.75C2415.9 354.958 2419.4 357.396 2422.06 361.062C2424.77 364.688 2426.12 369.417 2426.12 375.25C2426.12 383.583 2423.15 390.042 2417.19 394.625C2411.23 399.208 2403.33 401.5 2393.5 401.5H2358.56ZM2375.06 387.688H2393.5C2399.04 387.688 2403.1 386.5 2405.69 384.125C2408.31 381.708 2409.62 378.396 2409.62 374.188C2409.62 370.062 2408.31 366.812 2405.69 364.438C2403.1 362.021 2399.04 360.812 2393.5 360.812H2375.06V387.688ZM2375.06 347.438H2391.56C2397.1 347.438 2401.08 346.438 2403.5 344.438C2405.92 342.396 2407.12 339.521 2407.12 335.812C2407.12 332.146 2405.92 329.312 2403.5 327.312C2401.08 325.312 2397.1 324.312 2391.56 324.312H2375.06V347.438Z" fill="#020617"/>
</svg>
